<svg xmlns="http://www.w3.org/2000/svg" xmlns:xlink="http://www.w3.org/1999/xlink" viewBox="0 0 881.4 339.59"><defs><radialGradient id="a84e5848-d70d-4bc7-acaf-79f46e20f5d3" cx="126.69" cy="78.46" r="235.23" gradientUnits="userSpaceOnUse"><stop offset="0" stop-color="#09acc7"/><stop offset="1" stop-color="#09acc7"/></radialGradient></defs><g id="b6c10373-b610-4b74-91a5-4fc6a9c543ea" data-name="Calque 2"><g id="b4543c5b-791f-4872-94b7-4b2cd560f180" data-name="Calque 1"><path d="M449.34,118a21.35,21.35,0,0,1,4.06-8.38,18.91,18.91,0,0,1,7.83-5.53,32.79,32.79,0,0,1,12.28-2,62.74,62.74,0,0,1,11.75,1.22A52,52,0,0,1,497,107l7.84-32.15a102.16,102.16,0,0,0-14.58-4.45,88.31,88.31,0,0,0-20.81-2.3q-30.51,0-46,16.21T407.88,128V277.65h40.25V169.08h49.7v-33.5h-49.7v-7A43.84,43.84,0,0,1,449.34,118Z" style="fill:#09acc7"/><path d="M595.76,135.72c-3.07-.62-6.13-1.16-9.2-1.62s-6.12-.81-9.17-1.08-5.68-.41-7.85-.41a147,147,0,0,0-32.8,3.38,243.91,243.91,0,0,0-25.54,7.16V276h40.26V169.08a52.7,52.7,0,0,1,8-1.49,72.36,72.36,0,0,1,9.05-.67,79.14,79.14,0,0,1,15.65,1.48q7.29,1.5,12.69,2.84L603.58,138A44.11,44.11,0,0,0,595.76,135.72Z" style="fill:#09acc7"/><path d="M723.78,152.33a64.27,64.27,0,0,0-22-15.12,72.08,72.08,0,0,0-28.24-5.41,71.31,71.31,0,0,0-27.95,5.41,65.48,65.48,0,0,0-22.14,15.12,69.23,69.23,0,0,0-14.58,23.5,84.61,84.61,0,0,0-5.28,30.52A88,88,0,0,0,608.71,237,69.89,69.89,0,0,0,623,260.77,62.86,62.86,0,0,0,645,276a78.59,78.59,0,0,0,57.26,0,63,63,0,0,0,22-15.26A66.77,66.77,0,0,0,738.37,237a92.7,92.7,0,0,0,4.84-30.66,86.6,86.6,0,0,0-5.13-30.52A68.34,68.34,0,0,0,723.78,152.33Zm-29,83.6q-7.43,10.94-21.21,10.93T652.2,235.93q-7.56-11-7.56-29.58t7.56-29.3q7.56-10.67,21.33-10.67t21.21,10.67q7.43,10.66,7.42,29.3T694.74,235.93Z" style="fill:#09acc7"/><path d="M866.85,121.7l-25.5,11.52-2-.2q-7.7-.66-15-.67a87.48,87.48,0,0,0-30.51,5,63.35,63.35,0,0,0-22.82,14.18,60.94,60.94,0,0,0-14.18,22A79.73,79.73,0,0,0,752,202q0,31.33,15.67,48.75t45.1,17.42a71.19,71.19,0,0,0,15-1.49,64.59,64.59,0,0,0,13.37-4.45v5.13c0,7.93-2.4,14.41-7.15,19.45s-12.94,7.56-24.46,7.56a112.11,112.11,0,0,1-43.48-8.1l-7,33.75a161.65,161.65,0,0,0,24,6.08,148.42,148.42,0,0,0,25.93,2.3q37,0,54.68-16.88t17.7-51.73V131.09A10.3,10.3,0,0,0,866.85,121.7ZM841.16,230.39a43.67,43.67,0,0,1-9.19,3.78,40.32,40.32,0,0,1-11.61,1.62q-27.29,0-27.28-33.76,0-16.2,7.83-26.74t23.78-10.54c3.58,0,6.74.14,9.44.41s5,.59,7,.94v64.29Z" style="fill:#09acc7"/><path d="M238.74,5.64a76.27,76.27,0,0,0-72,7.78L32.85,105.59C12.94,119.29.06,141.65,0,165.82v.43C0,243.81,51,309.3,121.27,331.44l8.81-56,29.34,63.53a176.21,176.21,0,0,0,20.87.54c91.47-3.57,166.06-81,166.43-172.52A173.43,173.43,0,0,0,238.74,5.64Zm42.37,140.28L242.21,180a14.94,14.94,0,0,0-3.69,17.41l15.89,34.39h12.11a8.49,8.49,0,0,1,0,17H249a8.5,8.5,0,0,1-7.71-4.92L223.1,204.57A32,32,0,0,1,231,167.26l38.9-34.11a7,7,0,0,0,.78-9.78L247.57,95.46A5,5,0,0,0,243,93.74L227.2,96.49a167.1,167.1,0,0,0-66.52,27.17l-78.59,54.1a17.72,17.72,0,0,0-6,22.08l10,21.67a17.86,17.86,0,0,0,16.13,10.32h76.32a7.05,7.05,0,0,0,6.4-10l-14.65-31.69a7,7,0,0,0-10.36-2.84l-17.33,11.92,3.22,7a8.49,8.49,0,0,1-15.42,7.1l-6.22-13.47a8.47,8.47,0,0,1,2.9-10.54l23.22-16A24,24,0,0,1,185.66,183l14.65,31.67a24,24,0,0,1-21.82,34.1H102.17a34.86,34.86,0,0,1-31.55-20.17L60.63,207a34.66,34.66,0,0,1,11.83-43.18l78.6-54.1a183.7,183.7,0,0,1,73.23-29.91L240,77a21.89,21.89,0,0,1,20.61,7.6l23.14,27.92A23.89,23.89,0,0,1,281.11,145.92Zm-63.24-19.55a11.52,11.52,0,1,1,11.52,11.51A11.52,11.52,0,0,1,217.87,126.37Z" style="fill:url(#a84e5848-d70d-4bc7-acaf-79f46e20f5d3)"/></g></g></svg>
